<?xml version="1.0" encoding="iso-8859-1"?>
<!-- Generator: Adobe Illustrator 19.0.0, SVG Export Plug-In . SVG Version: 6.00 Build 0)  -->
<svg version="1.1" id="Layer_1" xmlns="http://www.w3.org/2000/svg" xmlns:xlink="http://www.w3.org/1999/xlink" x="0px" y="0px"
	width="172" height="172"  viewBox="-172 -172 688.058 688.058" style="enable-background:new 0 0 344.058 344.058;" xml:space="preserve">
<g>
	<path style="fill:#FFDB77;" d="M336.558,218.983c-13.185,0-98.403,0-108.649,0c-10.639,0-19.264,8.625-19.264,19.264
		s8.624,19.264,19.264,19.264h9.051l-32.523,20.496L153.38,245.83c-9-5.671-20.895-2.974-26.569,6.027
		c-5.672,9.001-2.974,20.896,6.027,26.569l61.329,38.65c6.275,3.955,14.266,3.956,20.542,0l94.514-59.564h27.336L336.558,218.983
		L336.558,218.983z"/>
	<path style="fill:#FF7876;" d="M192.762,138.277c-11.445-0.033-20.733,9.235-20.733,20.673c0-11.437-9.288-20.705-20.733-20.673
		c-17.999,0.052-27.451,21.804-14.88,34.952l-0.006,0.002l28.332,29.45c3.978,4.134,10.595,4.134,14.572,0l28.333-29.45
		l-0.006-0.002C220.23,160.063,210.736,138.328,192.762,138.277z"/>
	<g>
		<path style="fill:#FFDB77;" d="M7.5,125.076c13.185,0,98.403,0,108.649,0c10.639,0,19.264-8.625,19.264-19.264
			s-8.624-19.264-19.264-19.264h-9.05l32.522-20.496l51.058,32.177c9,5.671,20.895,2.974,26.568-6.027
			c5.672-9.001,2.974-20.896-6.027-26.569l-61.329-38.65c-6.275-3.955-14.266-3.955-20.542,0L34.836,86.548H7.5V125.076z"/>
		<g>
			<path style="fill:#414042;" d="M336.559,211.483h-108.65c-14.758,0-26.764,12.006-26.764,26.764
				c0,10.356,5.913,19.358,14.54,23.806l-11.248,7.089l-47.06-29.657c-12.483-7.869-29.044-4.11-36.911,8.372
				c-7.887,12.512-4.145,29.025,8.372,36.913l61.328,38.649c8.716,5.494,19.817,5.499,28.54,0l92.682-58.409h25.17
				c4.143,0,7.5-3.358,7.5-7.5v-38.528C344.059,214.841,340.701,211.483,336.559,211.483z M329.059,250.011h-19.836
				c-1.415,0-2.802,0.4-3.999,1.155l-94.516,59.565c-3.758,2.37-8.782,2.371-12.542-0.001l-61.329-38.649
				c-5.501-3.466-7.148-10.722-3.681-16.225c3.461-5.491,10.741-7.136,16.225-3.68l51.058,32.177c2.443,1.54,5.555,1.54,7.998,0
				l30.69-19.342h9.975c4.143,0,7.5-3.358,7.5-7.5c0-4.142-3.357-7.5-7.5-7.5c-11.944,0-9.374,0-21.192,0
				c-6.486,0-11.764-5.277-11.764-11.764c0-6.487,5.277-11.764,11.764-11.764h101.149L329.059,250.011L329.059,250.011z"/>
			<path style="fill:#414042;" d="M192.784,130.777c-0.027,0-0.056,0-0.083,0c-7.893,0-15.277,3.222-20.672,9.032
				c-5.404-5.82-12.792-9.032-20.672-9.032c-0.027,0-0.056,0-0.083,0c-24.554,0.07-37.231,29.482-20.506,47.395
				c0.077,0.088,0.156,0.174,0.237,0.259l28.333,29.45c6.924,7.197,18.432,7.222,25.382,0l28.332-29.45
				c0.081-0.085,0.16-0.171,0.237-0.259C229.947,160.329,217.479,130.847,192.784,130.777z M202.221,168.046
				c-0.059,0.062-0.116,0.124-0.173,0.188l-28.137,29.247c-1.027,1.066-2.735,1.069-3.763,0l-28.138-29.247
				c-0.057-0.064-0.114-0.126-0.173-0.188c-7.93-8.294-2.134-22.237,9.479-22.27c0.013,0,0.025,0,0.039,0
				c7.28,0,13.173,5.891,13.173,13.173c0,4.142,3.357,7.5,7.5,7.5s7.5-3.358,7.5-7.5c0-7.281,5.892-13.173,13.174-13.173
				c0.013,0,0.025,0,0.038,0C204.332,145.809,210.173,159.73,202.221,168.046z"/>
			<path style="fill:#414042;" d="M142.913,105.812c0-10.356-5.913-19.358-14.54-23.806l11.248-7.089l47.06,29.657
				c12.483,7.868,29.044,4.111,36.911-8.372c7.887-12.512,4.145-29.025-8.372-36.913L153.892,20.64
				c-8.716-5.494-19.817-5.499-28.54,0L32.67,79.048H7.5c-4.143,0-7.5,3.358-7.5,7.5v38.528c0,4.142,3.357,7.5,7.5,7.5h108.649
				C130.907,132.576,142.913,120.569,142.913,105.812z M116.149,117.576H15V94.048h19.836c1.415,0,2.802-0.4,3.999-1.155
				l94.516-59.565c3.758-2.37,8.782-2.371,12.542,0.001l61.329,38.649c5.501,3.466,7.148,10.722,3.681,16.225
				c-3.459,5.487-10.738,7.138-16.225,3.68L143.62,59.706c-2.443-1.54-5.555-1.54-7.998,0l-30.69,19.342h-9.975
				c-4.143,0-7.5,3.358-7.5,7.5s3.357,7.5,7.5,7.5c11.944,0,9.374,0,21.192,0c6.486,0,11.764,5.277,11.764,11.764
				C127.913,112.298,122.636,117.576,116.149,117.576z"/>
		</g>
	</g>
</g>
<g>
</g>
<g>
</g>
<g>
</g>
<g>
</g>
<g>
</g>
<g>
</g>
<g>
</g>
<g>
</g>
<g>
</g>
<g>
</g>
<g>
</g>
<g>
</g>
<g>
</g>
<g>
</g>
<g>
</g>
</svg>
